<mxfile host="app.diagrams.net" agent="Mozilla/5.0 (Windows NT 10.0; Win64; x64) AppleWebKit/537.36 (KHTML, like Gecko) Chrome/140.0.0.0 Safari/537.36 Edg/140.0.0.0" version="28.1.1">
  <diagram name="Page-1" id="lW62aFUR1Tna3ZwIQsze">
    <mxGraphModel dx="1418" dy="786" grid="0" gridSize="10" guides="1" tooltips="1" connect="1" arrows="1" fold="1" page="1" pageScale="1" pageWidth="850" pageHeight="1100" math="0" shadow="0">
      <root>
        <mxCell id="0" />
        <mxCell id="1" parent="0" />
        <mxCell id="-fxmGYIZ6r_2VyEsqN4b-1" value="&lt;font style=&quot;font-size: 24px;&quot;&gt;Action 1 : Automated Follow Up/ Next Best Action Email for required Calls&lt;/font&gt;" style="rounded=0;whiteSpace=wrap;html=1;fillColor=#cce5ff;strokeColor=#36393d;" vertex="1" parent="1">
          <mxGeometry x="17" y="23" width="816" height="41" as="geometry" />
        </mxCell>
        <mxCell id="-fxmGYIZ6r_2VyEsqN4b-4" value="" style="edgeStyle=orthogonalEdgeStyle;rounded=0;orthogonalLoop=1;jettySize=auto;html=1;" edge="1" parent="1" source="-fxmGYIZ6r_2VyEsqN4b-2" target="-fxmGYIZ6r_2VyEsqN4b-3">
          <mxGeometry relative="1" as="geometry" />
        </mxCell>
        <mxCell id="-fxmGYIZ6r_2VyEsqN4b-2" value="&lt;font style=&quot;font-size: 14px;&quot;&gt;Call Transcripts filtered as of requirement (&lt;i&gt;weekly in below query&lt;/i&gt;)&lt;/font&gt;" style="rounded=0;whiteSpace=wrap;html=1;fillColor=#ffe6cc;strokeColor=#d79b00;" vertex="1" parent="1">
          <mxGeometry x="30" y="148" width="196" height="85" as="geometry" />
        </mxCell>
        <mxCell id="-fxmGYIZ6r_2VyEsqN4b-6" value="" style="edgeStyle=orthogonalEdgeStyle;rounded=0;orthogonalLoop=1;jettySize=auto;html=1;" edge="1" parent="1" source="-fxmGYIZ6r_2VyEsqN4b-3" target="-fxmGYIZ6r_2VyEsqN4b-5">
          <mxGeometry relative="1" as="geometry" />
        </mxCell>
        <mxCell id="-fxmGYIZ6r_2VyEsqN4b-11" value="" style="edgeStyle=orthogonalEdgeStyle;rounded=0;orthogonalLoop=1;jettySize=auto;html=1;" edge="1" parent="1">
          <mxGeometry relative="1" as="geometry">
            <mxPoint x="368.5" y="270" as="sourcePoint" />
            <mxPoint x="120" y="319" as="targetPoint" />
            <Array as="points">
              <mxPoint x="369" y="290" />
              <mxPoint x="120" y="290" />
            </Array>
          </mxGeometry>
        </mxCell>
        <mxCell id="-fxmGYIZ6r_2VyEsqN4b-14" value="" style="edgeStyle=orthogonalEdgeStyle;rounded=0;orthogonalLoop=1;jettySize=auto;html=1;" edge="1" parent="1" source="-fxmGYIZ6r_2VyEsqN4b-3" target="-fxmGYIZ6r_2VyEsqN4b-13">
          <mxGeometry relative="1" as="geometry" />
        </mxCell>
        <mxCell id="-fxmGYIZ6r_2VyEsqN4b-15" style="edgeStyle=orthogonalEdgeStyle;rounded=0;orthogonalLoop=1;jettySize=auto;html=1;" edge="1" parent="1" source="-fxmGYIZ6r_2VyEsqN4b-3">
          <mxGeometry relative="1" as="geometry">
            <mxPoint x="659" y="314" as="targetPoint" />
            <Array as="points">
              <mxPoint x="371" y="290" />
              <mxPoint x="660" y="290" />
            </Array>
          </mxGeometry>
        </mxCell>
        <mxCell id="-fxmGYIZ6r_2VyEsqN4b-3" value="&lt;font style=&quot;font-size: 14px;&quot;&gt;AI.GENERATE_BOOL&lt;/font&gt;&lt;div&gt;(&lt;i&gt;Does call need a&lt;/i&gt;&lt;/div&gt;&lt;div&gt;&lt;i&gt;&amp;nbsp;follow up email&lt;/i&gt;)&lt;/div&gt;" style="rhombus;whiteSpace=wrap;html=1;fillColor=#fff2cc;strokeColor=#d6b656;rounded=0;" vertex="1" parent="1">
          <mxGeometry x="279" y="111" width="183" height="159" as="geometry" />
        </mxCell>
        <mxCell id="-fxmGYIZ6r_2VyEsqN4b-5" value="&lt;font style=&quot;font-size: 14px;&quot;&gt;No Email for this call. Dropped from further processes&amp;nbsp;&lt;/font&gt;" style="whiteSpace=wrap;html=1;fillColor=#f5f5f5;strokeColor=#666666;rounded=0;fontColor=#333333;" vertex="1" parent="1">
          <mxGeometry x="573.5" y="160.5" width="120" height="60" as="geometry" />
        </mxCell>
        <mxCell id="-fxmGYIZ6r_2VyEsqN4b-7" value="No" style="text;html=1;align=center;verticalAlign=middle;resizable=0;points=[];autosize=1;strokeColor=none;fillColor=none;" vertex="1" parent="1">
          <mxGeometry x="482" y="159" width="33" height="26" as="geometry" />
        </mxCell>
        <mxCell id="-fxmGYIZ6r_2VyEsqN4b-8" value="LLM Used : Gemini 2.5 Flash with Vertex AI connection in BigQuery&amp;nbsp;" style="text;html=1;align=center;verticalAlign=middle;resizable=0;points=[];autosize=1;strokeColor=#666666;fillColor=#f5f5f5;fontColor=#333333;" vertex="1" parent="1">
          <mxGeometry x="438" y="72" width="380" height="26" as="geometry" />
        </mxCell>
        <mxCell id="-fxmGYIZ6r_2VyEsqN4b-9" value="Embedding Model Used :&amp;nbsp;text-embedding-005 from Vertex AI in BigQuery" style="text;html=1;align=center;verticalAlign=middle;resizable=0;points=[];autosize=1;strokeColor=#666666;fillColor=#f5f5f5;fontColor=#333333;" vertex="1" parent="1">
          <mxGeometry x="438" y="101" width="408" height="26" as="geometry" />
        </mxCell>
        <mxCell id="-fxmGYIZ6r_2VyEsqN4b-18" style="edgeStyle=orthogonalEdgeStyle;rounded=0;orthogonalLoop=1;jettySize=auto;html=1;entryX=0;entryY=0.5;entryDx=0;entryDy=0;" edge="1" parent="1" source="-fxmGYIZ6r_2VyEsqN4b-10" target="-fxmGYIZ6r_2VyEsqN4b-17">
          <mxGeometry relative="1" as="geometry" />
        </mxCell>
        <mxCell id="-fxmGYIZ6r_2VyEsqN4b-10" value="&lt;font style=&quot;font-size: 14px;&quot;&gt;Vector Search for 3 Similar Calls in the past with high rating if it exists with high similarity&lt;/font&gt;" style="whiteSpace=wrap;html=1;fillColor=#ffe6cc;strokeColor=#d79b00;rounded=0;" vertex="1" parent="1">
          <mxGeometry x="30" y="319" width="193" height="95" as="geometry" />
        </mxCell>
        <mxCell id="-fxmGYIZ6r_2VyEsqN4b-12" value="Yes" style="text;html=1;align=center;verticalAlign=middle;resizable=0;points=[];autosize=1;strokeColor=none;fillColor=none;" vertex="1" parent="1">
          <mxGeometry x="378" y="263" width="38" height="26" as="geometry" />
        </mxCell>
        <mxCell id="-fxmGYIZ6r_2VyEsqN4b-13" value="&lt;font style=&quot;font-size: 14px;&quot;&gt;Vector Search of top call to business problem -solution database to retrieve potential business solutions for customer problem&lt;/font&gt;" style="whiteSpace=wrap;html=1;fillColor=#ffe6cc;strokeColor=#d79b00;rounded=0;" vertex="1" parent="1">
          <mxGeometry x="250" y="319" width="240" height="93" as="geometry" />
        </mxCell>
        <mxCell id="-fxmGYIZ6r_2VyEsqN4b-20" style="edgeStyle=orthogonalEdgeStyle;rounded=0;orthogonalLoop=1;jettySize=auto;html=1;entryX=1;entryY=0.5;entryDx=0;entryDy=0;" edge="1" parent="1" source="-fxmGYIZ6r_2VyEsqN4b-16" target="-fxmGYIZ6r_2VyEsqN4b-17">
          <mxGeometry relative="1" as="geometry" />
        </mxCell>
        <mxCell id="-fxmGYIZ6r_2VyEsqN4b-16" value="&lt;span style=&quot;font-size: 14px;&quot;&gt;Customer Data Aggregation (Demographics, Internet, Mobile, Home Security services etc.)&lt;/span&gt;" style="whiteSpace=wrap;html=1;fillColor=#ffe6cc;strokeColor=#d79b00;rounded=0;" vertex="1" parent="1">
          <mxGeometry x="543" y="319" width="240" height="93" as="geometry" />
        </mxCell>
        <mxCell id="-fxmGYIZ6r_2VyEsqN4b-22" value="" style="edgeStyle=orthogonalEdgeStyle;rounded=0;orthogonalLoop=1;jettySize=auto;html=1;" edge="1" parent="1" source="-fxmGYIZ6r_2VyEsqN4b-17" target="-fxmGYIZ6r_2VyEsqN4b-21">
          <mxGeometry relative="1" as="geometry" />
        </mxCell>
        <mxCell id="-fxmGYIZ6r_2VyEsqN4b-17" value="&lt;div style=&quot;text-align: center;&quot;&gt;&lt;span style=&quot;font-size: 14px; background-color: transparent; color: light-dark(rgb(0, 0, 0), rgb(255, 255, 255));&quot;&gt;For each call, use &lt;/span&gt;&lt;b style=&quot;font-size: 14px; background-color: transparent; color: light-dark(rgb(0, 0, 0), rgb(255, 255, 255));&quot;&gt;AI.GENERATE&lt;/b&gt;&lt;span style=&quot;font-size: 14px; background-color: transparent; color: light-dark(rgb(0, 0, 0), rgb(255, 255, 255));&quot;&gt; to collecting all the info from above create personalized follow up email with&amp;nbsp;&lt;/span&gt;&lt;/div&gt;&lt;div&gt;&lt;span style=&quot;background-color: transparent; color: light-dark(rgb(0, 0, 0), rgb(255, 255, 255)); font-size: medium;&quot;&gt;&lt;br&gt;&lt;/span&gt;&lt;/div&gt;&lt;div&gt;&lt;span style=&quot;background-color: transparent; color: light-dark(rgb(0, 0, 0), rgb(255, 255, 255));&quot;&gt;&lt;i style=&quot;&quot;&gt;&lt;font style=&quot;font-size: 14px;&quot;&gt;Primary Goal : Address issue from the call and provide customer the next best action for solving customer issues&lt;/font&gt;&lt;/i&gt;&lt;/span&gt;&lt;div&gt;&lt;span style=&quot;color: light-dark(rgb(0, 0, 0), rgb(255, 255, 255)); background-color: transparent;&quot;&gt;&lt;i style=&quot;&quot;&gt;&lt;font style=&quot;font-size: 14px;&quot;&gt;Secondary Goal : Suggest relevant upsell/cross-sells&lt;/font&gt;&lt;/i&gt;&lt;/span&gt;&lt;/div&gt;&lt;/div&gt;" style="whiteSpace=wrap;html=1;align=left;fillColor=#d5e8d4;strokeColor=#82b366;" vertex="1" parent="1">
          <mxGeometry x="154" y="450" width="458" height="138" as="geometry" />
        </mxCell>
        <mxCell id="-fxmGYIZ6r_2VyEsqN4b-21" value="&lt;font style=&quot;font-size: 14px;&quot;&gt;Save the Generated Personalized Follow up Email to a table. Connect to the marketing tool and send it out on demand&lt;/font&gt;" style="whiteSpace=wrap;html=1;align=center;fillColor=#e1d5e7;strokeColor=#9673a6;" vertex="1" parent="1">
          <mxGeometry x="233" y="631" width="301" height="60" as="geometry" />
        </mxCell>
        <mxCell id="-fxmGYIZ6r_2VyEsqN4b-25" style="edgeStyle=orthogonalEdgeStyle;rounded=0;orthogonalLoop=1;jettySize=auto;html=1;entryX=0.472;entryY=0.022;entryDx=0;entryDy=0;entryPerimeter=0;" edge="1" parent="1" source="-fxmGYIZ6r_2VyEsqN4b-13" target="-fxmGYIZ6r_2VyEsqN4b-17">
          <mxGeometry relative="1" as="geometry" />
        </mxCell>
        <mxCell id="-fxmGYIZ6r_2VyEsqN4b-26" value="&lt;b&gt;&lt;i&gt;Estimated 23K$ savings per week for&amp;nbsp;&lt;/i&gt;&lt;/b&gt;&lt;div&gt;&lt;b&gt;&lt;i&gt;&amp;nbsp;a company with 100K customers&lt;/i&gt;&lt;/b&gt;&lt;/div&gt;" style="text;html=1;align=center;verticalAlign=middle;resizable=0;points=[];autosize=1;strokeColor=#82b366;fillColor=#d5e8d4;" vertex="1" parent="1">
          <mxGeometry x="599" y="640.5" width="233" height="41" as="geometry" />
        </mxCell>
      </root>
    </mxGraphModel>
  </diagram>
</mxfile>
